<?xml version="1.0" encoding="utf-8"?>
<!-- Svg Vector Icons : http://www.onlinewebfonts.com/icon -->
<!DOCTYPE svg PUBLIC "-//W3C//DTD SVG 1.1//EN" "http://www.w3.org/Graphics/SVG/1.1/DTD/svg11.dtd">
<svg version="1.1" xmlns="http://www.w3.org/2000/svg" xmlns:xlink="http://www.w3.org/1999/xlink" x="0px" y="0px" viewBox="0 0 1000 1000" enable-background="new 0 0 1000 1000" xml:space="preserve">
<metadata> Svg Vector Icons : http://www.onlinewebfonts.com/icon </metadata>
<g><path fill="#fff" d="M884.4,332.8H728.1v97h156.3V332.8z M884.4,456.3H728.1v97.1h156.3V456.3z M884.4,209.3H728.1v97h156.3V209.3z M884.4,698.8H728.1v97.1h156.3V698.8z M956.2,112.3H580.3c-4.5,0-8.8,0.9-12.7,2.6V10L10,121.1v757.8L567.6,990v-99.6c3.9,1.7,8.2,2.6,12.7,2.6h375.9c18.7,0,33.8-15.8,33.8-35.3V147.6C990,128.1,974.9,112.3,956.2,112.3z M385.9,663.6l-67.6-4.4l-50.7-127.9l-54.9,119.2l-63.4-4.4l80.3-145.6l-71.8-158.7l63.3-4.4l42.2,119.1h8.4l46.5-127.9l67.6-4.4l-84.5,167.6L385.9,663.6z M947.8,848.8H567.6v-52.9h126.7v-97.1H567.6v-22h126.7v-97H567.6v-26.4h126.7v-97.1H567.6v-26.5h126.7v-97H567.6v-26.4h126.7v-97H567.6v-52.9h380.2L947.8,848.8L947.8,848.8z M884.4,579.8H728.1v97h156.3V579.8z"/></g>
</svg>
